<svg width="76" height="24" fill="none" xmlns="http://www.w3.org/2000/svg"><path d="M4.438 22.878V9.488l9.659 13.39h3.824V1.223h-4.466v13.36l-9.63-13.36H0V22.88h4.438v-.002zm22.35.337c1.87 0 3.238-1.037 3.797-1.861v1.524H34.8V7.627h-4.215v1.525c-.559-.824-1.927-1.861-3.797-1.861-3.657 0-6.476 3.63-6.476 7.962 0 4.331 2.82 7.962 6.476 7.962zm.95-4.18c-1.899 0-3.183-1.586-3.183-3.782 0-2.197 1.284-3.783 3.182-3.783s3.183 1.586 3.183 3.783c0 2.196-1.285 3.782-3.183 3.782h.001zm18.301 4.18c3.657 0 6.477-3.631 6.477-7.962 0-4.332-2.82-7.962-6.477-7.962-1.87 0-3.238 1.037-3.796 1.86V0h-4.215v22.878h4.215v-1.524c.558.823 1.926 1.86 3.796 1.86zm-.949-4.18c-1.898 0-3.182-1.586-3.182-3.782 0-2.197 1.284-3.783 3.182-3.783s3.183 1.586 3.183 3.783c0 2.196-1.285 3.782-3.183 3.782zm14.032 3.843V0h-4.216v22.878h4.216zm8.867.337c1.87 0 3.238-1.037 3.796-1.861v1.524H76V7.627h-4.215v1.525c-.558-.824-1.926-1.861-3.796-1.861-3.657 0-6.477 3.63-6.477 7.962 0 4.331 2.82 7.962 6.477 7.962zm.949-4.18c-1.899 0-3.183-1.586-3.183-3.782 0-2.197 1.284-3.783 3.183-3.783 1.898 0 3.182 1.586 3.182 3.783 0 2.196-1.284 3.782-3.182 3.782z" fill="#040062"/></svg>